<?xml version="1.0" encoding="UTF-8"?>
<svg id="Capa_2" data-name="Capa 2" xmlns="http://www.w3.org/2000/svg" viewBox="0 0 164.07 158.58">
  <defs>
    <style>
      .cls-1 {
        fill: #fff;
        stroke-width: 0px;
      }
    </style>
  </defs>
  <g id="Capa_3" data-name="Capa 3">
    <g>
      <path class="cls-1" d="M156.8,35.46c-3.7-2.54-7.87-3.77-12.76-3.77-1.59,0-3.27.14-5.02.4-7.9,1.21-15.44,4.81-23.06,11.01-8.52,6.93-15.34,15.77-20.3,26.27-1.07-.22-2.14-.4-3.18-.58-1.08-.18-2.11-.35-3.13-.57-10.93-2.28-21.35-6.12-30.99-9.93-2.4-.95-4.74-1.9-7.23-2.9l-1.45-.59c-.51-.21-1.06-.31-1.61-.31-1.76,0-3.32,1.05-3.99,2.68l-1.04,2.54-1.14,2.78c-.9,2.2.15,4.72,2.35,5.62,15.34,6.3,30.44,12.2,46.33,15.03-3.89,15.54-3.28,31.25,1.78,45.44,4.14,11.62,11.09,21.92,19.58,29,.76.64,1.74.99,2.74.99,1.26,0,2.46-.55,3.28-1.51l.79-.92,2.79-3.26c1.44-1.68,1.38-4.15-.13-5.76-.48-.51-.96-1.02-1.44-1.52-1.94-2.04-3.77-3.97-5.35-6.06-12.12-16.14-15.24-34.08-9.52-54.84,1.51-.07,3.05-.12,4.55-.17,4.22-.14,8.59-.29,12.88-.85,10.31-1.35,19.47-4.9,27.25-10.55,6.87-5,11.05-10.33,13.16-16.78,2.74-8.4.39-16.41-6.15-20.9ZM112.15,70.35c-.36.08-.66.13-.9.15.14-.24.34-.53.61-.87.03-.04.07-.09.1-.13,1.59-2.34,3.37-4.99,5.29-7.37,5.74-7.17,12.2-11.99,19.77-14.74,2.49-.9,4.55-1.33,6.48-1.33,1.19,0,2.32.17,3.44.5,2.38.71,3.11,1.9,2.6,4.23-.73,3.44-2.83,6.41-6.79,9.62-5.72,4.63-12.75,7.56-21.47,8.94-2.99.47-6.1.73-8.84.96-.1,0-.19.02-.28.04Z"/>
      <path class="cls-1" d="M96.74,9.53c-2.42-4.45-6.82-7.59-12.39-8.85-2.02-.46-4.1-.69-6.17-.69-4.92,0-10.02,1.28-15.57,3.9-11.6,5.47-20.82,14.32-28.19,27.07-1.06,1.84-2.02,3.76-2.94,5.61l-.47.94c-.08.15-.23.25-.41.25-.02,0-.04,0-.07,0-8.37-1.09-15.61-2.8-22.15-5.22-.54-.2-1.1-.3-1.67-.3-1.91,0-3.63,1.12-4.39,2.86l-1.93,4.41c-.52,1.19-.53,2.57-.03,3.77.51,1.22,1.46,2.14,2.68,2.61,6.47,2.48,13.59,4.29,22.4,5.69.16.03.25.12.3.19.05.07.1.19.07.35-6.18,27.75-2.98,51.98,9.79,74.08.85,1.47,2.44,2.39,4.15,2.39.98,0,1.93-.3,2.74-.86l3.99-2.78c2.04-1.42,2.65-4.11,1.44-6.28l-.37-.65c-1.14-2.03-2.22-3.94-3.13-5.92-1.37-2.98-2.55-6.05-3.5-9.12-3.66-11.74-4.7-23.98-3.1-36.36.43-3.31,1.22-6.67,1.98-9.93.3-1.26.6-2.55.89-3.85.75-.02,1.5-.04,2.25-.06,4.5-.12,9.15-.23,13.72-.76,10.08-1.17,18.98-4.35,26.43-9.46,7.31-5,11.85-10.43,14.3-17.09,2.08-5.68,1.85-11.34-.65-15.94ZM83.98,20.21c-1.05,3.12-3.15,5.84-6.81,8.81-5.5,4.47-12.44,7.28-21.22,8.59h-.08s-.1.02-.1.02l-9.29.86c.38-.58.78-1.17,1.17-1.75.4-.6.8-1.19,1.16-1.75,5.92-9.06,12.93-15.19,21.44-18.73,3.07-1.28,5.6-1.88,7.96-1.88.79,0,1.59.07,2.36.21,1.21.21,2.79.69,3.45,1.81.65,1.09.33,2.68-.06,3.81Z"/>
    </g>
  </g>
</svg>